# xmcd
#
# Track frame offsets: 
#        150
#        15494
#        35189
#        48628
#        59480
#        76782
#        91122
#        104783
#        118109
#        134784
#        150120
#        167757
#        183980
#        201403
#        222777
#        239104
#        253752
#        268915
#        284252
#        300815
#
# Disc length: 4242 seconds
#
# Revision: 0
# Processed by: cddbd v1.5.2PL0 Copyright (c) Steve Scherf et al.
# Submitted via: ExactAudioCopy v0.95b3
#
DISCID=25109014
DTITLE=Frank Michael - Après Tant D'Année D'Amour CD 1
DYEAR=2009
DGENRE=Chanson
TTITLE0=Après Tant D'Année D'Amour
TTITLE1=La Fille Du Soleil
TTITLE2=A Part Ca Tout Va Bien
TTITLE3=Retour Au Porteur
TTITLE4=Tourne La Valse Infinie (Version Inédite)
TTITLE5=La Force Des Femmes
TTITLE6=Cinétoile
TTITLE7=La Vie Elle Chante, La Vie Elle Pleure
TTITLE8=Pour Toutes Les Mamans
TTITLE9=Fou De Corfou
TTITLE10=C'est Chaud Comme L'Amour
TTITLE11=Aimer Quelqu'Un Qui Va Partir
TTITLE12=Les Feuilles Mortes
TTITLE13=Ill Ragga Della Vita Gluck
TTITLE14=Un Petit Homme (Version Remixée 1998)
TTITLE15=Les Femmes Sont Faites Pour Qu'On Les Aime
TTITLE16=Le Petit Café Du Grand Amour
TTITLE17=Il Est Toujours Question D'Amour
TTITLE18=Vous Me Le Dites Avec Des Fleurs
TTITLE19=Les Filles Des Antilles
EXTD=
EXTT0=
EXTT1=
EXTT2=
EXTT3=
EXTT4=
EXTT5=
EXTT6=
EXTT7=
EXTT8=
EXTT9=
EXTT10=
EXTT11=
EXTT12=
EXTT13=
EXTT14=
EXTT15=
EXTT16=
EXTT17=
EXTT18=
EXTT19=
PLAYORDER=
